<svg width="39" height="50" fill="none" xmlns="http://www.w3.org/2000/svg"><path d="M1.26 49h23.75l3.25-38.56H4.76L1.26 49ZM25.01 49h9.75l-6.5-38.56" stroke="#3A3734" stroke-width="2" stroke-miterlimit="10" stroke-linecap="round" stroke-linejoin="round"/><path d="m4.76 10.44 3.09-6.09h23.33l-2.92 6.82M7.85 4.35 12.68 1h23.58l-5.08 3.35M36.26 1l1 5.19-3.16 2.75h-4.21M37.26 6.19H30.4M16.422 33.375c.76-1.742-.492-3.968-2.796-4.972-2.303-1.005-4.786-.407-5.546 1.334-.76 1.742.493 3.968 2.796 4.973 2.304 1.004 4.787.406 5.546-1.335Z" stroke="#3A3734" stroke-width="2" stroke-miterlimit="10" stroke-linecap="round" stroke-linejoin="round"/><path d="M8.37 29.67s2.01 2.24 3.58 2.04c1.57-.2 2.42.42 4.21 2.14M13.2 28.17c.02-1.69 1.65-3.13 3.9-3.55 2.47-.45 4.76.69 5.1 2.56.34 1.87-1.38 3.75-3.86 4.2-.62.11-1.22.13-1.79.05" stroke="#3A3734" stroke-width="2" stroke-miterlimit="10" stroke-linecap="round" stroke-linejoin="round"/><path d="M22 27.42s-2.92-.73-4.11.31c-1.19 1.04-2.13.99-4.57.57" stroke="#3A3734" stroke-width="2" stroke-miterlimit="10" stroke-linecap="round" stroke-linejoin="round"/></svg>