<svg width="48" height="49" fill="none" xmlns="http://www.w3.org/2000/svg"><path d="M40.06 21.99s6.27-.8 6.27 6.27c0 7.08-9.22 7.54-9.22 7.54M28.62 1.8a3.876 3.876 0 0 1 .21 4.73c-.98 1.39-.94 3.25.1 4.59M20.65 1.8a3.876 3.876 0 0 1 .21 4.73c-.98 1.39-.94 3.25.1 4.59M12.69 1.8a3.876 3.876 0 0 1 .21 4.73c-.98 1.39-.94 3.25.1 4.59M31.29 47.6H12.93c-4.44 0-8.72-1.49-11.93-4.15h42.21C40 46.11 35.73 47.6 31.29 47.6ZM29.93 42.93c3.76-3 6.52-6.13 7.26-10.68l2.15-13.32H4.26l2.15 13.32c.74 4.55 3.5 7.68 7.26 10.68" stroke="#3A3734" stroke-width="2" stroke-miterlimit="10" stroke-linecap="round" stroke-linejoin="round"/></svg>