<svg width="47" height="49" fill="none" xmlns="http://www.w3.org/2000/svg"><path d="M35.75 17.64s9.33-2.17 9.33 5.83c0 5.46-9.33 10.33-9.33 10.33M29.09 1.8a3.876 3.876 0 0 1 .21 4.73c-.98 1.39-.94 3.25.1 4.59M21.12 1.8a3.876 3.876 0 0 1 .21 4.73c-.98 1.39-.94 3.25.1 4.59M13.16 1.8a3.876 3.876 0 0 1 .21 4.73c-.98 1.39-.94 3.25.1 4.59M31.75 47.6H13.39c-4.44 0-8.72-1.49-11.92-4.15h42.21c-3.21 2.66-7.48 4.15-11.93 4.15ZM27.67 43.45c1.29 0 2.53-.61 3.64-1.47 2.89-2.24 4.44-5.73 4.44-9.31V14.3h-28v18.36c0 3.58 1.55 7.08 4.44 9.31 1.11.86 2.35 1.47 3.64 1.47" stroke="#3A3734" stroke-width="2" stroke-miterlimit="10" stroke-linecap="round" stroke-linejoin="round"/></svg>