<svg width="36" height="47" fill="none" xmlns="http://www.w3.org/2000/svg"><path d="M23.61 17.69H1.78V46h21.83V17.69Z" stroke="#3A3734" stroke-width="2" stroke-miterlimit="10" stroke-linecap="round" stroke-linejoin="round"/><path d="M23.61 24.17H1.78v12.79h21.83V24.17Z" stroke="#3A3734" stroke-width="2" stroke-miterlimit="10" stroke-linecap="round" stroke-linejoin="round"/><path d="M1.78 17.69 7.11 6.42h22l-5.5 10.77V46h11V17.19l-5.5-10.77" stroke="#3A3734" stroke-width="2" stroke-miterlimit="10" stroke-linecap="round" stroke-linejoin="round"/><path d="M13.077 34.04c2.45-.697 4.008-2.76 3.482-4.608-.526-1.849-2.937-2.783-5.386-2.086-2.449.697-4.007 2.76-3.482 4.608.526 1.849 2.938 2.783 5.386 2.086Z" stroke="#3A3734" stroke-width="2" stroke-miterlimit="10" stroke-linecap="round" stroke-linejoin="round"/><path d="M16.4 29.7s-3.01-.46-4.11.71c-1.1 1.17-2.16 1.23-4.67 1.04M29.11 1.35h-22v5.06h22V1.35ZM23.61 46l5.5-5.65 5.5 5.65M29.11 7.42v32.93" stroke="#3A3734" stroke-width="2" stroke-miterlimit="10" stroke-linecap="round" stroke-linejoin="round"/></svg>