<svg width="44" height="42" fill="none" xmlns="http://www.w3.org/2000/svg"><path d="M16.67 1.97H1.75v28.67s.1 2.11 1.04 4.51c1.29 3.33 4.58 5.45 8.15 5.45h6.4" stroke="#3A3734" stroke-width="2" stroke-miterlimit="10" stroke-linecap="round" stroke-linejoin="round"/><path d="M16.67 1.97h14.92v28.67s-.1 2.11-1.04 4.51c-1.29 3.33-4.58 5.45-8.15 5.45H16" stroke="#3A3734" stroke-width="2" stroke-miterlimit="10" stroke-linecap="round" stroke-linejoin="round"/><path d="M37.76 6.3c-1.79 0-4-.13-6.17-.08v3.93c1.32-.03 2.65.06 3.74.06 3.41 0 3.09 3.54 3.09 7.91s-2.76 7.91-6.17 7.91c-.22 0-.44-.04-.65-.1v3.85c.38.11.77.18 1.17.18 5.52 0 10-5.3 10-11.83-.01-6.53.51-11.83-5.01-11.83ZM31.59 18.22H1.76v11.75h29.83V18.22Z" stroke="#3A3734" stroke-width="2" stroke-miterlimit="10" stroke-linecap="round" stroke-linejoin="round"/><path d="M31.59 22.08H1.76v4.03h29.83v-4.03Z" stroke="#3A3734" stroke-width="2" stroke-miterlimit="10" stroke-linecap="round" stroke-linejoin="round"/></svg>