<svg width="48" height="45" fill="none" xmlns="http://www.w3.org/2000/svg"><path d="M46.16 5.06H1.23v11.3h44.93V5.06ZM42.97 1.03H4.42v3.94h38.55V1.03ZM40.11 16.36H7.27v23.45h32.84V16.36ZM42.97 39.81H4.42v4.13h38.55v-4.13Z" stroke="#3A3734" stroke-width="2" stroke-miterlimit="10" stroke-linecap="round" stroke-linejoin="round"/><path d="M29.66 28.44s4.17-.95 4.17 2.57c0 2.4-4.17 4.55-4.17 4.55" stroke="#3A3734" stroke-width="2" stroke-miterlimit="10" stroke-linecap="round" stroke-linejoin="round"/><path d="M26.05 39.81c.58 0 1.13-.27 1.63-.65 1.29-.99 1.98-2.52 1.98-4.1v-8.09H17.14v8.09c0 1.58.69 3.12 1.98 4.1.5.38 1.05.65 1.63.65M27.28 16.36h-7.62v6.93h7.62v-6.93ZM27.48 18.95h8.81c.82 0 1.49.67 1.49 1.49s-.67 1.49-1.49 1.49h-8.81M11.53 13.46a2.75 2.75 0 1 0 0-5.5 2.75 2.75 0 0 0 0 5.5ZM18.91 10.71h3M24.91 10.71h3M30.91 10.71h3M7.74 10.71h7.42" stroke="#3A3734" stroke-width="2" stroke-miterlimit="10" stroke-linecap="round" stroke-linejoin="round"/></svg>