<svg width="48" height="48" fill="none" xmlns="http://www.w3.org/2000/svg"><path d="M37.17 19.64s9.33-2.17 9.33 5.83c0 5.46-9.33 10.33-9.33 10.33M32.17 46.6H13.81c-4.44 0-8.72-1.49-11.92-4.15H44.1c-3.21 2.66-7.48 4.15-11.93 4.15ZM22.13 16.3H7.1v18.36c0 3.58 1.02 5.55 4.12 7.78M22.13 16.3h15.03v18.36c0 3.58-1.02 5.55-4.12 7.78M16.97 16.3v5.67" stroke="#3A3734" stroke-width="2" stroke-miterlimit="10" stroke-linecap="round" stroke-linejoin="round"/><path d="M16.97 33.22H13.6v-6.75l3.37-3.87M16.97 33.22h3.38v-6.75l-3.38-3.87M25.69 16.3S32.98-1.67 37.72 1.69c4.11 2.9-5.38 6.57-8.62 14.61" stroke="#3A3734" stroke-width="2" stroke-miterlimit="10" stroke-linecap="round" stroke-linejoin="round"/></svg>