<svg width="41" height="49" fill="none" xmlns="http://www.w3.org/2000/svg"><path d="M40 44.25H1.33v3.68H40v-3.68ZM40 29.97H1.33c0-2.03 1.65-3.68 3.68-3.68h31.3c2.04 0 3.69 1.65 3.69 3.68ZM37.9 29.97H3.43v14.28H37.9V29.97Z" stroke="#3A3734" stroke-width="2" stroke-miterlimit="10" stroke-linecap="round" stroke-linejoin="round"/><path d="M33.3 32.94H8.02v8.34H33.3v-8.34ZM18.83 37.11h3.5M17.67 26.08h6.99c4.79-1.49 8.27-5.95 8.27-11.23H9.4c0 5.27 3.48 9.74 8.27 11.23ZM21.17 14.85V12.1M21.27 12.1c-.86 0-1.56-.7-1.56-1.56v-2c0-.86.7-1.56 1.56-1.56.86 0 1.56.7 1.56 1.56v2c0 .85-.7 1.56-1.56 1.56ZM37.9 7.06c-.86 0-1.56-.7-1.56-1.56v-2c0-.86.7-1.56 1.56-1.56.86 0 1.56.7 1.56 1.56v2c0 .86-.7 1.56-1.56 1.56Z" stroke="#3A3734" stroke-width="2" stroke-miterlimit="10" stroke-linecap="round" stroke-linejoin="round"/><path d="m22.83 9.53 3.13-2.56 11.94.09" stroke="#3A3734" stroke-width="2" stroke-miterlimit="10" stroke-linecap="round" stroke-linejoin="round"/></svg>