<svg width="42" height="49" fill="none" xmlns="http://www.w3.org/2000/svg"><path d="M40.61 44.25H1.94v3.68h38.67v-3.68ZM40.61 29.97H1.94c0-2.03 1.65-3.68 3.68-3.68h31.3c2.04 0 3.69 1.65 3.69 3.68ZM38.51 29.97H4.04v14.28h34.47V29.97Z" stroke="#3A3734" stroke-width="2" stroke-miterlimit="10" stroke-linecap="round" stroke-linejoin="round"/><path d="M33.92 32.94H8.64v8.34h25.28v-8.34ZM19.44 37.11h3.5M25.38 17.6h-7.22c-4.94 1.12-8.53 4.5-8.53 8.48h24.28c.01-3.99-3.58-7.36-8.53-8.48ZM21.78 14.85V12.1M21.88 12.1c-.86 0-1.56-.7-1.56-1.56v-2c0-.86.7-1.56 1.56-1.56.86 0 1.56.7 1.56 1.56v2c0 .85-.7 1.56-1.56 1.56ZM38.51 7.06c-.86 0-1.56-.7-1.56-1.56v-2c0-.86.7-1.56 1.56-1.56.86 0 1.56.7 1.56 1.56v2c0 .86-.7 1.56-1.56 1.56Z" stroke="#3A3734" stroke-width="2" stroke-miterlimit="10" stroke-linecap="round" stroke-linejoin="round"/><path d="m23.44 9.53 3.13-2.56 11.94.09M25.24 14.85h-7.07v2.75h7.07v-2.75Z" stroke="#3A3734" stroke-width="2" stroke-miterlimit="10" stroke-linecap="round" stroke-linejoin="round"/></svg>