<svg width="49" height="47" fill="none" xmlns="http://www.w3.org/2000/svg"><path d="M47.26 10.6V7.96c0-3.35-2.71-6.06-6.06-6.06H1.26v44.04h46V43.3c0-3.35-2.71-6.06-6.06-6.06H12.83V10.6h34.43Z" stroke="#3A3734" stroke-width="2" stroke-miterlimit="10" stroke-linecap="round" stroke-linejoin="round"/><path d="M41.57 23.5s4.11-.53 4.11 4.11c0 4.64-6.05 4.94-6.05 4.94M34.92 37.23c2.47-1.97 4.27-4.02 4.76-7l1.41-8.74h-23l1.41 8.74c.49 2.98 2.29 5.04 4.76 7M35.58 10.6H23.26v2.87h12.32V10.6ZM6.91 14.62a2.16 2.16 0 1 0 0-4.32 2.16 2.16 0 0 0 0 4.32ZM6.91 22.62a2.16 2.16 0 1 0 0-4.32 2.16 2.16 0 0 0 0 4.32Z" stroke="#3A3734" stroke-width="2" stroke-miterlimit="10" stroke-linecap="round" stroke-linejoin="round"/></svg>