<svg width="39" height="49" fill="none" xmlns="http://www.w3.org/2000/svg"><path d="M26.13 47.52H8.8c-2.04 0-3.69-1.65-3.69-3.69V13.71h24.71v30.12c0 2.04-1.65 3.69-3.69 3.69ZM29.82 9.25H1.01c0 2.46 1.99 4.45 4.45 4.45h24.35V9.25h.01ZM29.82 9.25H5.11V7.97c0-2.04 1.65-3.69 3.69-3.69h17.33c2.04 0 3.69 1.65 3.69 3.69v1.28Z" stroke="#3A3734" stroke-width="2" stroke-miterlimit="10" stroke-linecap="round" stroke-linejoin="round"/><path d="M19.49 4.28h-5.38v-.07a2.69 2.69 0 0 1 5.38 0v.07ZM33.46 39.1h-3.63V13.71h3.63a3.91 3.91 0 0 1 3.91 3.91v17.57c0 2.15-1.75 3.91-3.91 3.91ZM29.82 28.6H5.11v3.04h24.71V28.6ZM16.8 14.1v13.75" stroke="#3A3734" stroke-width="2" stroke-miterlimit="10" stroke-linecap="round" stroke-linejoin="round"/></svg>