<svg width="39" height="50" fill="none" xmlns="http://www.w3.org/2000/svg"><path d="M17.22 27.4v21.12H9.24l2.99-21.12h4.99Z" stroke="#3A3734" stroke-width="2" stroke-miterlimit="10" stroke-linecap="round" stroke-linejoin="round"/><path d="M12.23 27.4h-3.6L3.66 45.45c-.35 1.57.79 3.07 2.34 3.07h3.24M17.22 27.4v21.12h7.98L22.21 27.4h-4.99Z" stroke="#3A3734" stroke-width="2" stroke-miterlimit="10" stroke-linecap="round" stroke-linejoin="round"/><path d="M22.21 27.4h3.6l4.97 18.05c.35 1.57-.79 3.07-2.34 3.07H25.2M25.21 23.97H9.26v3.43h15.95v-3.43ZM17.45 23.97V8.85h-6.36l1.25 15.12M8.65 23.97 5.93 8.85h5.16" stroke="#3A3734" stroke-width="2" stroke-miterlimit="10" stroke-linecap="round" stroke-linejoin="round"/><path d="M7.29 16.91c-4.64-2.42-6.28-8.06-6.28-8.06h4.92s7.15-4.32 11.54-4.32M17.49 23.97V8.85h6.36l-1.24 15.12M26.29 23.97l2.73-15.12h-5.17M29.02 8.85s-7.15-4.32-11.54-4.32M15.64 4c0-1.37.84-2.47 1.88-2.47S19.4 2.64 19.4 4M29.02 10.72h1.82a6.68 6.68 0 0 1 6.68 6.68v10.08c0 .83-.67 1.5-1.5 1.5s-1.5-.67-1.5-1.5V17.23c0-1.86-1.51-3.37-3.37-3.37h-2.86" stroke="#3A3734" stroke-width="2" stroke-miterlimit="10" stroke-linecap="round" stroke-linejoin="round"/></svg>