<svg width="47" height="50" fill="none" xmlns="http://www.w3.org/2000/svg"><path d="M45.44 8.7c-7.25 1.69-27.46 15.47-31.02 28.4M12.44 49a5.95 5.95 0 1 0 0-11.9 5.95 5.95 0 0 0 0 11.9Z" stroke="#3A3734" stroke-width="2" stroke-miterlimit="10" stroke-linecap="round" stroke-linejoin="round"/><path d="M9.61 44.17s2.6-.34 2.6 1.96M25.89 43.05a5.95 5.95 0 1 0 0-11.9 5.95 5.95 0 0 0 0 11.9Z" stroke="#3A3734" stroke-width="2" stroke-miterlimit="10" stroke-linecap="round" stroke-linejoin="round"/><path d="M25.08 40.03s1.3-2.28 3.13-.9M7.84 33.89a5.95 5.95 0 1 0 0-11.9 5.95 5.95 0 0 0 0 11.9Z" stroke="#3A3734" stroke-width="2" stroke-miterlimit="10" stroke-linecap="round" stroke-linejoin="round"/><path d="M4.8 27.77s2.51.78 1.54 2.87M13.6 26.46s3.3-1.68 6.96 0c0 0 3.14 1.48 3.23 5.08M12.44 13.94s10.12-.46 16.37 4.54" stroke="#3A3734" stroke-width="2" stroke-miterlimit="10" stroke-linecap="round" stroke-linejoin="round"/><path d="M25.08 16.14S21.43 3.07 3.8 13.57c0 0 9.43 9.02 20.78 2.33M34.03 15.26s3.52 5.96 3.65 11.96" stroke="#3A3734" stroke-width="2" stroke-miterlimit="10" stroke-linecap="round" stroke-linejoin="round"/><path d="M36.26 20.19s-7.45 4.44 1.42 17.17c0 0 9.26-12.88-1.42-17.17ZM36.68 12.85s-5.94-4.63-10.79-6.38" stroke="#3A3734" stroke-width="2" stroke-miterlimit="10" stroke-linecap="round" stroke-linejoin="round"/><path d="M33.03 10.27s2.62-11.05-18.62-8.3c0 0 9.03 12.72 19.27 8.74" stroke="#3A3734" stroke-width="2" stroke-miterlimit="10" stroke-linecap="round" stroke-linejoin="round"/></svg>