<svg width="48" height="49" fill="none" xmlns="http://www.w3.org/2000/svg"><path d="M40.09 21.99s6.26-1.52 6.26 4.31c0 7.08-11.18 10.23-11.18 10.23M28.65 1.8a3.876 3.876 0 0 1 .21 4.73c-.98 1.39-.94 3.25.1 4.59M20.69 1.8a3.876 3.876 0 0 1 .21 4.73c-.98 1.39-.94 3.25.1 4.59M12.72 1.8a3.876 3.876 0 0 1 .21 4.73c-.98 1.39-.94 3.25.1 4.59M31.32 47.6H12.96c-4.44 0-8.72-1.49-11.92-4.15h42.21c-3.21 2.66-7.49 4.15-11.93 4.15ZM21.6 19.8H3.69s-2 18.4 14.17 23.65" stroke="#3A3734" stroke-width="2" stroke-miterlimit="10" stroke-linecap="round" stroke-linejoin="round"/><path d="M21.6 19.8h17.91s2 18.4-14.17 23.65" stroke="#3A3734" stroke-width="2" stroke-miterlimit="10" stroke-linecap="round" stroke-linejoin="round"/></svg>