<svg width="375" height="55" viewBox="0 0 375 55" fill="none" xmlns="http://www.w3.org/2000/svg">
<g clip-path="url(#clip0_163_3968)">
<path d="M41.4979 10L24 27.4979L41.4979 44.9958L58.9958 27.4979L41.4979 10ZM27.5703 27.4979L41.4979 13.5703L55.4255 27.4979L41.4979 41.4255L27.5703 27.4979Z" fill="white"/>
<path d="M41.4979 16.9619C37.4282 16.9619 33.7247 21.9845 33.7247 27.4981C33.7247 33.0117 37.4282 38.0343 41.4979 38.0343C45.5676 38.0343 49.271 33.0117 49.271 27.4981C49.271 21.9845 45.5676 16.9619 41.4979 16.9619ZM36.2548 27.4981C36.2548 25.0763 37.191 22.6836 38.5101 21.1523C38.3853 21.7057 38.3187 22.2758 38.3187 22.8584C38.3187 24.9473 39.1343 26.9114 40.6074 28.3886C42.5382 30.3194 42.663 33.3779 40.9861 35.4544C38.5226 34.9925 36.2548 31.2807 36.2548 27.4981ZM44.4815 33.8523C45.0474 31.3223 44.3566 28.5676 42.3925 26.6035C40.4617 24.6727 40.3369 21.6142 42.0139 19.5377C44.4732 20.0038 46.7452 23.7156 46.7452 27.4981C46.7452 29.9283 45.8047 32.3251 44.4815 33.8523Z" fill="white"/>
</g>
<path d="M327 21H350.5M327 27H350.5M327 33.5H343.5" stroke="white" stroke-width="3"/>
<defs>
<clipPath id="clip0_163_3968">
<rect width="35" height="35" fill="white" transform="translate(24 10)"/>
</clipPath>
</defs>
</svg>
